<?xml version="1.0" standalone="no"?>
<svg xmlns:xlink="http://www.w3.org/1999/xlink" id="wave" style="transform:rotate(0deg); transition: 0.3s" viewBox="0 0 1440 490" version="1.1" xmlns="http://www.w3.org/2000/svg"><defs><linearGradient id="sw-gradient-0" x1="0" x2="0" y1="1" y2="0"><stop stop-color="rgba(226, 226, 226, 1)" offset="0%"/><stop stop-color="rgba(226, 226, 226, 1)" offset="100%"/></linearGradient></defs><path style="transform:translate(0, 0px); opacity:1" fill="url(#sw-gradient-0)" d="M0,98L34.3,130.7C68.6,163,137,229,206,285.8C274.3,343,343,392,411,367.5C480,343,549,245,617,212.3C685.7,180,754,212,823,204.2C891.4,196,960,147,1029,130.7C1097.1,114,1166,131,1234,163.3C1302.9,196,1371,245,1440,253.2C1508.6,261,1577,229,1646,204.2C1714.3,180,1783,163,1851,204.2C1920,245,1989,343,2057,351.2C2125.7,359,2194,278,2263,253.2C2331.4,229,2400,261,2469,269.5C2537.1,278,2606,261,2674,228.7C2742.9,196,2811,147,2880,179.7C2948.6,212,3017,327,3086,326.7C3154.3,327,3223,212,3291,138.8C3360,65,3429,33,3497,40.8C3565.7,49,3634,98,3703,130.7C3771.4,163,3840,180,3909,228.7C3977.1,278,4046,359,4114,400.2C4182.9,441,4251,441,4320,416.5C4388.6,392,4457,343,4526,343C4594.3,343,4663,392,4731,359.3C4800,327,4869,212,4903,155.2L4937.1,98L4937.1,490L4902.9,490C4868.6,490,4800,490,4731,490C4662.9,490,4594,490,4526,490C4457.1,490,4389,490,4320,490C4251.4,490,4183,490,4114,490C4045.7,490,3977,490,3909,490C3840,490,3771,490,3703,490C3634.3,490,3566,490,3497,490C3428.6,490,3360,490,3291,490C3222.9,490,3154,490,3086,490C3017.1,490,2949,490,2880,490C2811.4,490,2743,490,2674,490C2605.7,490,2537,490,2469,490C2400,490,2331,490,2263,490C2194.3,490,2126,490,2057,490C1988.6,490,1920,490,1851,490C1782.9,490,1714,490,1646,490C1577.1,490,1509,490,1440,490C1371.4,490,1303,490,1234,490C1165.7,490,1097,490,1029,490C960,490,891,490,823,490C754.3,490,686,490,617,490C548.6,490,480,490,411,490C342.9,490,274,490,206,490C137.1,490,69,490,34,490L0,490Z"/><defs><linearGradient id="sw-gradient-1" x1="0" x2="0" y1="1" y2="0"><stop stop-color="rgba(196, 196, 196, 1)" offset="0%"/><stop stop-color="rgba(196, 196, 196, 1)" offset="100%"/></linearGradient></defs><path style="transform:translate(0, 50px); opacity:0.9" fill="url(#sw-gradient-1)" d="M0,98L34.3,81.7C68.6,65,137,33,206,32.7C274.3,33,343,65,411,89.8C480,114,549,131,617,187.8C685.7,245,754,343,823,367.5C891.4,392,960,343,1029,343C1097.1,343,1166,392,1234,416.5C1302.9,441,1371,441,1440,375.7C1508.6,310,1577,180,1646,122.5C1714.3,65,1783,82,1851,114.3C1920,147,1989,196,2057,220.5C2125.7,245,2194,245,2263,245C2331.4,245,2400,245,2469,236.8C2537.1,229,2606,212,2674,245C2742.9,278,2811,359,2880,383.8C2948.6,408,3017,376,3086,334.8C3154.3,294,3223,245,3291,253.2C3360,261,3429,327,3497,351.2C3565.7,376,3634,359,3703,367.5C3771.4,376,3840,408,3909,408.3C3977.1,408,4046,376,4114,367.5C4182.9,359,4251,376,4320,334.8C4388.6,294,4457,196,4526,196C4594.3,196,4663,294,4731,334.8C4800,376,4869,359,4903,351.2L4937.1,343L4937.1,490L4902.9,490C4868.6,490,4800,490,4731,490C4662.9,490,4594,490,4526,490C4457.1,490,4389,490,4320,490C4251.4,490,4183,490,4114,490C4045.7,490,3977,490,3909,490C3840,490,3771,490,3703,490C3634.3,490,3566,490,3497,490C3428.6,490,3360,490,3291,490C3222.9,490,3154,490,3086,490C3017.1,490,2949,490,2880,490C2811.4,490,2743,490,2674,490C2605.7,490,2537,490,2469,490C2400,490,2331,490,2263,490C2194.3,490,2126,490,2057,490C1988.6,490,1920,490,1851,490C1782.9,490,1714,490,1646,490C1577.1,490,1509,490,1440,490C1371.4,490,1303,490,1234,490C1165.7,490,1097,490,1029,490C960,490,891,490,823,490C754.3,490,686,490,617,490C548.6,490,480,490,411,490C342.9,490,274,490,206,490C137.1,490,69,490,34,490L0,490Z"/></svg>